<mxfile host="65bd71144e">
    <diagram id="D-cRJEiSjpqTg3IAq6my" name="Page-1">
        <mxGraphModel dx="813" dy="605" grid="1" gridSize="10" guides="1" tooltips="1" connect="1" arrows="1" fold="1" page="1" pageScale="1" pageWidth="850" pageHeight="1100" background="#FFFFFF" math="0" shadow="0">
            <root>
                <mxCell id="0"/>
                <mxCell id="1" parent="0"/>
                <mxCell id="2KP0c55gx7lBGWxXmche-1" value="Full Node&lt;br&gt;Main" style="rounded=0;whiteSpace=wrap;html=1;" parent="1" vertex="1">
                    <mxGeometry x="90" y="190" width="120" height="60" as="geometry"/>
                </mxCell>
                <mxCell id="2KP0c55gx7lBGWxXmche-15" style="edgeStyle=orthogonalEdgeStyle;rounded=0;orthogonalLoop=1;jettySize=auto;html=1;entryX=0.5;entryY=0;entryDx=0;entryDy=0;startArrow=classic;startFill=1;" parent="1" source="2KP0c55gx7lBGWxXmche-2" target="2KP0c55gx7lBGWxXmche-1" edge="1">
                    <mxGeometry relative="1" as="geometry"/>
                </mxCell>
                <mxCell id="2KP0c55gx7lBGWxXmche-2" value="Full Node&lt;br&gt;Wallet 1" style="rounded=0;whiteSpace=wrap;html=1;" parent="1" vertex="1">
                    <mxGeometry x="270" y="140" width="120" height="60" as="geometry"/>
                </mxCell>
                <mxCell id="2KP0c55gx7lBGWxXmche-18" value="" style="edgeStyle=orthogonalEdgeStyle;rounded=0;orthogonalLoop=1;jettySize=auto;html=1;startArrow=classic;startFill=1;exitX=0.5;exitY=1;exitDx=0;exitDy=0;" parent="1" source="2KP0c55gx7lBGWxXmche-2" target="2KP0c55gx7lBGWxXmche-7" edge="1">
                    <mxGeometry relative="1" as="geometry">
                        <mxPoint x="330" y="200" as="sourcePoint"/>
                    </mxGeometry>
                </mxCell>
                <mxCell id="2KP0c55gx7lBGWxXmche-22" style="edgeStyle=orthogonalEdgeStyle;rounded=0;orthogonalLoop=1;jettySize=auto;html=1;entryX=1;entryY=0.5;entryDx=0;entryDy=0;startArrow=none;startFill=0;" parent="1" source="2KP0c55gx7lBGWxXmche-4" target="2KP0c55gx7lBGWxXmche-7" edge="1">
                    <mxGeometry relative="1" as="geometry"/>
                </mxCell>
                <mxCell id="2KP0c55gx7lBGWxXmche-4" value="Tx Mining Service" style="rounded=0;whiteSpace=wrap;html=1;" parent="1" vertex="1">
                    <mxGeometry x="470" y="340" width="120" height="60" as="geometry"/>
                </mxCell>
                <mxCell id="2KP0c55gx7lBGWxXmche-6" value="" style="edgeStyle=orthogonalEdgeStyle;rounded=0;orthogonalLoop=1;jettySize=auto;html=1;" parent="1" source="2KP0c55gx7lBGWxXmche-5" target="2KP0c55gx7lBGWxXmche-4" edge="1">
                    <mxGeometry relative="1" as="geometry"/>
                </mxCell>
                <mxCell id="2KP0c55gx7lBGWxXmche-5" value="CPU Miner" style="rounded=0;whiteSpace=wrap;html=1;" parent="1" vertex="1">
                    <mxGeometry x="640" y="340" width="120" height="60" as="geometry"/>
                </mxCell>
                <mxCell id="2KP0c55gx7lBGWxXmche-19" style="edgeStyle=orthogonalEdgeStyle;rounded=0;orthogonalLoop=1;jettySize=auto;html=1;entryX=0.5;entryY=1;entryDx=0;entryDy=0;startArrow=classic;startFill=1;" parent="1" source="2KP0c55gx7lBGWxXmche-7" target="2KP0c55gx7lBGWxXmche-1" edge="1">
                    <mxGeometry relative="1" as="geometry"/>
                </mxCell>
                <mxCell id="2KP0c55gx7lBGWxXmche-7" value="Full Node&lt;br&gt;Miner" style="rounded=0;whiteSpace=wrap;html=1;" parent="1" vertex="1">
                    <mxGeometry x="270" y="240" width="120" height="60" as="geometry"/>
                </mxCell>
                <mxCell id="2KP0c55gx7lBGWxXmche-9" value="" style="edgeStyle=orthogonalEdgeStyle;rounded=0;orthogonalLoop=1;jettySize=auto;html=1;" parent="1" source="2KP0c55gx7lBGWxXmche-8" target="2KP0c55gx7lBGWxXmche-7" edge="1">
                    <mxGeometry relative="1" as="geometry"/>
                </mxCell>
                <mxCell id="2KP0c55gx7lBGWxXmche-8" value="CPU Miner" style="rounded=0;whiteSpace=wrap;html=1;" parent="1" vertex="1">
                    <mxGeometry x="470" y="240" width="120" height="60" as="geometry"/>
                </mxCell>
                <mxCell id="2KP0c55gx7lBGWxXmche-13" value="" style="edgeStyle=orthogonalEdgeStyle;rounded=0;orthogonalLoop=1;jettySize=auto;html=1;" parent="1" source="2KP0c55gx7lBGWxXmche-10" target="2KP0c55gx7lBGWxXmche-2" edge="1">
                    <mxGeometry relative="1" as="geometry"/>
                </mxCell>
                <mxCell id="2KP0c55gx7lBGWxXmche-10" value="Wallet 1" style="rounded=0;whiteSpace=wrap;html=1;" parent="1" vertex="1">
                    <mxGeometry x="470" y="140" width="120" height="60" as="geometry"/>
                </mxCell>
            </root>
        </mxGraphModel>
    </diagram>
</mxfile>